<?xml version="1.0" encoding="utf-8"?>
<svg version="1.0" width="500.000000pt" height="500.000000pt" viewBox="0 0 500.000000 500.000000" preserveAspectRatio="xMidYMid meet" xmlns="http://www.w3.org/2000/svg">
  <defs>
    <linearGradient gradientUnits="userSpaceOnUse" x1="2537.54" y1="1205.975" x2="2537.54" y2="3747.438" id="gradient-0">
      <stop offset="0" style="stop-color: rgba(237, 174, 239, 1)"/>
      <stop offset="1" style="stop-color: rgba(218, 89, 222, 1)"/>
    </linearGradient>
    <linearGradient gradientUnits="userSpaceOnUse" x1="1478.453" y1="1170" x2="1478.453" y2="1729.794" id="gradient-1">
      <stop offset="0" style="stop-color: rgba(218, 134, 221, 1)"/>
      <stop offset="1" style="stop-color: rgba(193, 56, 197, 1)"/>
    </linearGradient>
  </defs>
  <g transform="translate(0.000000,500.000000) scale(0.100000,-0.100000)" fill="#000000" stroke="none">
    <path d="M3420 3735 c-289 -55 -616 -241 -867 -492 -139 -140 -219 -238 -368 -448 l-127 -180 -126 -6 c-70 -4 -196 -7 -280 -8 -169 -1 -152 6 -219 -83 -132 -173 -182 -248 -178 -260 4 -9 78 -36 186 -68 l181 -54 -9 -60 c-4 -34 -8 -95 -8 -136 0 -63 5 -86 32 -143 45 -94 119 -170 211 -214 79 -38 101 -39 248 -17 l42 6 41 -133 c64 -206 75 -234 92 -233 14 1 128 83 270 194 l57 44 7 270 7 271 202 137 c238 163 311 220 430 336 200 196 335 398 441 662 85 210 161 578 127 612 -19 19 -297 21 -392 3z m295 -42 l47 -6 -6 -66 c-33 -323 -194 -695 -421 -976 -132 -163 -260 -270 -610 -510 -126 -87 -350 -241 -497 -341 -147 -101 -276 -184 -285 -184 -32 0 -117 46 -165 89 -53 47 -103 139 -114 206 l-6 44 193 272 c107 149 263 368 346 486 192 270 240 330 383 474 306 308 590 460 960 513 45 6 126 6 175 -1z m-1716 -1163 c-8 -11 -81 -115 -164 -231 l-150 -212 -3 45 -3 45 -160 49 c-89 27 -166 52 -172 56 -7 4 25 54 84 132 l94 125 70 4 c39 1 148 4 244 5 171 2 173 2 160 -18z m549 -868 c-3 -172 -4 -184 -24 -200 -122 -98 -227 -173 -234 -166 -5 5 -30 81 -57 169 l-49 160 -42 5 -41 5 96 65 c53 36 152 104 222 152 l126 87 3 -47 c2 -26 2 -129 0 -230z" style="fill: url(#gradient-0);"/>
    <path d="M1365 1718 c-46 -122 -172 -523 -168 -534 3 -8 12 -14 20 -14 16 0 482 143 521 160 12 5 22 16 22 24 0 38 -34 33 -260 -39 -124 -39 -226 -69 -228 -66 -1 4 31 107 72 229 41 123 72 230 69 238 -6 17 -42 19 -48 2z" style="fill: url(#gradient-1);"/>
  </g>
</svg>